<?xml version="1.0" encoding="UTF-8"?><svg id="Lag_1" xmlns="http://www.w3.org/2000/svg" viewBox="0 0 425.19 122.06"><path d="M32.09,40.09v-14.77c0-2.11-.07-3.81-.22-5.12-.15-1.3-.48-2.28-.98-2.94-.5-.65-1.26-1.11-2.26-1.36-1.01-.25-2.31-.38-3.92-.38-1.71,0-3.04,.13-3.99,.38-.95,.25-1.68,.71-2.18,1.36-.5,.65-.83,1.63-.98,2.94-.15,1.31-.23,3.01-.23,5.12v11.75c0,1.51,.1,2.77,.3,3.77,.2,1.01,.63,1.91,1.28,2.71,.65,.81,1.6,1.61,2.86,2.41,1.25,.81,2.99,1.76,5.2,2.86,5.22,2.71,9.34,5.02,12.35,6.93,3.01,1.91,5.27,3.84,6.78,5.8,1.51,1.96,2.46,4.17,2.86,6.63s.6,5.65,.6,9.56v19.13c0,5.52-.33,9.95-.98,13.26-.66,3.32-1.89,5.85-3.69,7.61-1.81,1.76-4.35,2.91-7.61,3.47-3.26,.55-7.46,.83-12.58,.83-4.82,0-8.79-.28-11.9-.83-3.12-.55-5.58-1.71-7.39-3.47-1.81-1.76-3.06-4.29-3.76-7.61-.71-3.31-1.05-7.73-1.05-13.26v-23.64H17.48v23.65c0,2.11,.07,3.79,.22,5.05,.15,1.25,.48,2.24,.98,2.94,.5,.71,1.23,1.18,2.19,1.43,.95,.25,2.23,.38,3.84,.38,3.22,0,5.25-.6,6.1-1.81s1.28-3.87,1.28-7.99v-17.92c0-2.01-.07-3.66-.22-4.97-.15-1.3-.55-2.46-1.21-3.47-.65-1-1.63-1.93-2.94-2.78-1.31-.85-3.07-1.88-5.27-3.09-5.22-2.71-9.32-5.02-12.28-6.93-2.97-1.9-5.2-3.84-6.71-5.8s-2.46-4.12-2.86-6.48c-.4-2.36-.6-5.25-.6-8.66v-11.46c0-5.52,.32-9.94,.98-13.26,.65-3.31,1.89-5.87,3.69-7.68,1.81-1.81,4.32-2.99,7.53-3.54S19.59,.01,24.71,.01s9.12,.27,12.28,.83c3.16,.55,5.63,1.73,7.39,3.54,1.75,1.81,2.96,4.37,3.61,7.69,.65,3.31,.98,7.73,.98,13.26v14.77h-16.88Z"/><path d="M100.3,15.98h-12.96V120.54h-17.33V15.98h-13.1V1.52h43.39s0,14.46,0,14.46Z"/><path d="M142.87,120.54h-34.05V1.52h33.9V15.83h-16.57v17.32h16.12v13.72h-16.12v58.76h16.72v14.91h0Z"/><path d="M152.18,120.54V1.52h34.65V15.83h-17.32v17.63h16.72v14.31h-16.72V120.54s-17.33,0-17.33,0Z"/><path d="M226.49,120.54v-26.52h-14.61v26.52h-16.88V25.02c0-5.52,.32-9.92,.98-13.18,.65-3.26,1.88-5.77,3.69-7.53,1.81-1.76,4.29-2.91,7.46-3.46S214.34,.02,219.26,.02s8.96,.3,12.13,.9,5.67,1.81,7.53,3.62,3.14,4.34,3.84,7.61c.7,3.26,1.05,7.56,1.05,12.88V120.55h-17.32Zm-7.39-105.02c-1.51,0-2.74,.13-3.69,.38s-1.71,.71-2.26,1.36-.9,1.61-1.05,2.86c-.15,1.25-.22,2.88-.22,4.89v54.84h14.61V25.02c0-2.01-.1-3.64-.3-4.89s-.55-2.21-1.05-2.86-1.26-1.11-2.26-1.36c-1.01-.25-2.27-.38-3.78-.38Z"/><path d="M287.76,120.54l-17.93-74.27h-.61V120.54h-14.92V1.52h19.14l17.17,76.39h.61V1.52h15.06V120.54s-18.52,0-18.52,0Z"/><path d="M366.18,96.89c0,5.52-.33,9.95-.98,13.26-.65,3.32-1.91,5.85-3.77,7.61s-4.39,2.91-7.61,3.47c-3.22,.55-7.38,.83-12.51,.83s-9.29-.28-12.51-.83-5.72-1.71-7.53-3.47-3.04-4.29-3.69-7.61c-.66-3.31-.98-7.73-.98-13.26V25.02c0-5.52,.32-9.92,.98-13.18,.65-3.26,1.88-5.77,3.69-7.53,1.81-1.76,4.31-2.91,7.53-3.46s7.39-.83,12.51-.83,9.29,.27,12.51,.83,5.75,1.71,7.61,3.46c1.86,1.76,3.12,4.27,3.77,7.53s.98,7.66,.98,13.18V96.89Zm-17.48-71.87c0-4.01-.45-6.6-1.36-7.76-.9-1.15-2.91-1.73-6.03-1.73-1.61,0-2.89,.13-3.84,.38-.96,.25-1.71,.73-2.26,1.43-.55,.7-.9,1.68-1.05,2.94s-.23,2.84-.23,4.75V96.89c0,2.11,.07,3.79,.23,5.05s.5,2.24,1.05,2.94c.55,.71,1.3,1.18,2.26,1.43,.95,.25,2.23,.38,3.84,.38s2.89-.13,3.84-.38c.95-.25,1.71-.75,2.26-1.5,.55-.75,.9-1.76,1.05-3.01s.23-2.88,.23-4.9V25.02h0Z"/><path d="M407.72,40.09v-14.77c0-2.11-.07-3.81-.22-5.12-.15-1.3-.48-2.28-.98-2.94-.5-.65-1.26-1.11-2.26-1.36-1.01-.25-2.31-.38-3.92-.38-1.71,0-3.04,.13-3.99,.38-.95,.25-1.68,.71-2.18,1.36-.5,.65-.83,1.63-.98,2.94-.15,1.31-.23,3.01-.23,5.12v11.75c0,1.51,.1,2.77,.3,3.77,.2,1.01,.63,1.91,1.28,2.71,.65,.81,1.6,1.61,2.86,2.41,1.25,.81,2.99,1.76,5.2,2.86,5.22,2.71,9.34,5.02,12.35,6.93s5.27,3.84,6.78,5.8c1.51,1.96,2.46,4.17,2.86,6.63s.6,5.65,.6,9.56v19.13c0,5.52-.33,9.95-.98,13.26-.66,3.32-1.89,5.85-3.69,7.61-1.81,1.76-4.35,2.91-7.61,3.47-3.26,.55-7.46,.83-12.58,.83-4.82,0-8.79-.28-11.9-.83-3.12-.55-5.58-1.71-7.39-3.47-1.81-1.76-3.06-4.29-3.76-7.61-.71-3.31-1.05-7.73-1.05-13.26v-23.64h16.88v23.65c0,2.11,.07,3.79,.22,5.05,.15,1.25,.48,2.24,.98,2.94,.5,.71,1.23,1.18,2.19,1.43,.95,.25,2.23,.38,3.84,.38,3.22,0,5.25-.6,6.1-1.81s1.28-3.87,1.28-7.99v-17.92c0-2.01-.07-3.66-.22-4.97-.15-1.3-.55-2.46-1.21-3.47-.65-1-1.63-1.93-2.94-2.78s-3.07-1.88-5.27-3.09c-5.22-2.71-9.32-5.02-12.28-6.93-2.97-1.9-5.2-3.84-6.71-5.8-1.51-1.96-2.46-4.12-2.86-6.48s-.6-5.25-.6-8.66v-11.46c0-5.52,.32-9.94,.98-13.26,.65-3.32,1.89-5.88,3.69-7.69,1.81-1.81,4.32-2.99,7.53-3.54s7.39-.83,12.51-.83,9.12,.27,12.28,.83c3.16,.55,5.63,1.73,7.39,3.54,1.75,1.81,2.96,4.37,3.61,7.69,.65,3.31,.98,7.73,.98,13.26v14.77h-16.88Z"/></svg>