<?xml version="1.0" encoding="UTF-8"?><svg id="Layer_1" xmlns="http://www.w3.org/2000/svg" viewBox="0 0 468.18 109.34"><path d="M109.32,0c2.18,2.88,4.36,5.77,6.9,9.12,4.63-4.36,10.21-9.02,17.77-5.65,2.97,1.32,5.25,4.15,7.85,6.29-.31,.36-.63,.72-.94,1.09-1.82-1.75-3.4-3.89-5.5-5.17-6.21-3.78-14.37-.54-18.11,6.71-.51,.98-2.06,1.43-3.12,2.12-.48-.89-1.31-1.75-1.39-2.67-.31-3.69-1.04-7.14-4.87-8.75-2.66-1.11-9.4,1.63-11.65,4.35-2.76,3.33-5.74,6.49-8.35,9.93-1.08,1.43-1.25,3.51-2.2,5.08-.65,1.06-1.96,2.46-2.92,2.42-1.19-.06-2.72-1.2-3.4-2.3-1.19-1.93-1.5-4.43-2.79-6.26-2.5-3.54-6.19-3.95-9.74-1.54-9.75,6.62-12.45,26.5-4.68,35.27,4.19,4.72,9.73,4.43,15.29,3.49,2.42-.41,4.81-1.05,7.21-1.59,.23,.48,.45,.95,.68,1.43-2.22,1.4-4.45,2.79-6.46,4.05,0,6.11,.74,12.24-.14,18.12-2.75,18.5-14.3,29.68-32.98,32.83-15.83,2.67-30.91-.69-45.74-5.93,5.94,1.11,11.84,2.59,17.84,3.24,13.05,1.41,25.96,1.81,38.5-3.79,16.72-7.46,21.69-27.54,19.08-41.57-.18-.96-1.86-2.37-2.82-2.35-11.06,.2-16.95-8-18.53-16.47-1.52-8.13-.27-15.87,4.2-22.99,7.28-11.58,15.94-11.98,24.05-.7C87.63,10.36,93.78,3.89,102.18,0,104.56,0,106.94,0,109.32,0Z"/><path d="M468.18,54.11c-3.73-.17-4.54,1.37-3.6,4.94,1.07,4.07-.79,5.4-5.04,4.19,1.07-1.04,2.21-2.13,3.34-3.22-.29-.28-.58-.56-.87-.85-3.12,1.63-6.5,2.91-9.26,5.02-1.6,1.22-2.18,3.76-3.6,6.41-.12-.18-1.31-1.17-1.14-1.79,1.26-4.68,2.8-9.29,4.24-13.91q5.88,1.51,6.42,4.04c3.97-1.1,3.94-7.91,9.51-6.61v1.77Z"/><path d="M256,72.39c4.6-2.83,8.51-5.83,12.9-7.8,5.78-2.59,9.97,1.02,9.15,7.34-1.38,10.52-15.2,25.79-25.72,28.59-3.51,.93-5.78,.06-6.89-3.5-.34-1.1-.96-2.1-1.55-3.34-2.99,2.32-5.59,4.76-8.58,6.56-7.52,4.52-13.29,1.44-12.86-7.21,.3-5.93,1.97-11.8,3.17-18.49-1.91,1.69-3.7,2.89-4.99,4.49-4.54,5.63-8.84,11.46-13.4,17.08-1.16,1.43-2.95,2.37-4.44,3.54-.45-1.98-1.01-3.95-1.3-5.96-.14-.94,.26-1.95,.52-3.62-1.71,1.25-2.78,2.29-4.05,2.92-5.27,2.62-10.38,5.84-15.96,7.47-7.88,2.29-12.89-2.12-12.17-10.32,.91-10.4,6.32-18.62,14.31-25.13,1.14-.93,4.09-1.52,4.76-.85,2.32,2.32,6.77,2.67,6.63,7.46-.21,7.26-7.83,14.74-15.31,14.49-1.01-.03-2.02-.21-4.34-.46,.75,3.24,.59,6.66,2.23,8.35,1.3,1.34,5.35,1.57,7.23,.56,6.21-3.34,12.1-7.31,17.84-11.41,1.33-.95,1.65-3.34,2.35-5.1,1.81-4.51,3.42-9.12,5.45-13.53,.9-1.95,2.83-3.44,5.06-1.55,1.9,1.61,1.9,3.06,.22,5.56-2.85,4.24-4.5,9.27-5.92,13.99,6.98-5.9,13.91-11.85,20.97-17.64,1.04-.85,2.67-.98,4.03-1.44,.27,1.72,1.23,3.69,.7,5.11-2.01,5.37-4.72,10.49-6.73,15.86-.95,2.56-1.22,5.49-1.23,8.25-.02,3.57,2.29,5.17,5.23,3.44,5.94-3.49,11.33-7.86,13.94-14.44,4.25-10.71,8.09-21.57,12.07-32.38,.66-1.79,.87-3.79,1.73-5.46,.9-1.74,2.06-3.65,3.64-4.69,2.18-1.43,3.91-.29,3.55,2.35-.29,2.15-1.17,4.26-2,6.3-3.33,8.15-6.75,16.26-10.23,24.61Zm-5.41,20.64c.74,.34,2.11,1.57,3.2,1.36,6.32-1.2,17.68-15.24,17.87-21.75,.06-2.08-.46-3.47-3.08-2.91-7.04,1.5-18,14.83-18,23.3Zm-72.13-12.88c5.75,.51,9.83-1.65,10.65-5.3,.3-1.32-.59-2.91-.93-4.38-1.31,.4-3.08,.4-3.83,1.28-2.05,2.4-3.68,5.17-5.89,8.4Z"/><path d="M336,85.22c.86,3.7,.7,7.11,2.34,8.78,1.32,1.35,5.35,1.61,7.23,.6,6.21-3.34,12.06-7.35,17.86-11.38,1.15-.8,1.51-2.78,2.1-4.27,1.84-4.66,3.44-9.43,5.5-14,.91-2.02,2.74-3.99,5.29-1.96,2.23,1.78,1.7,3.3-.03,5.83-2.84,4.15-4.34,9.19-6.41,13.85,.33,.21,.66,.41,.99,.62,.76-.71,1.5-1.44,2.27-2.13,6.5-5.81,12.96-11.67,19.53-17.39,1.83-1.6,4.28-.4,4.24,2.15-.02,1.51-.97,3-1.52,4.5-2.4,6.49-5.06,12.9-7.02,19.51-.54,1.81,.44,4.92,1.86,6.14,.9,.77,4.4-.26,5.84-1.5,4.23-3.68,8.08-7.81,11.91-11.93,.81-.87,1.1-2.37,1.29-3.62,1.17-7.41,7.6-13.99,14.98-15.07,1.15-.17,2.57-.35,3.5,.15,1.28,.68,2.21,2.01,3.29,3.06-1.15,.72-2.24,1.59-3.47,2.14-3.06,1.37-6.43,2.21-9.22,3.98-3.22,2.04-3.5,5.26-1.56,8.57,1.42,2.42,2.97,4.78,4.18,7.3,1.81,3.78,.7,7.05-2.75,9.22-2.48,1.56-5.21,2.89-8.02,3.71-2.23,.65-5.58,.56-5.43-2.51,.08-1.62,3.03-3.46,5.05-4.53,1.58-.83,3.71-.61,5.59-.86-.7-2.16-1.29-4.37-2.14-6.48-.42-1.05-1.31-1.91-2.28-3.24-2.56,3.15-4.65,6.39-7.4,8.93-3.33,3.07-6.92,6.12-10.94,8.11-4.77,2.36-8.88,.2-9.53-5.06-.53-4.25,.34-8.73,.99-13.05,.43-2.86,1.57-5.61,2.39-8.4l-.93-.77c-4.1,4.49-8.33,8.87-12.24,13.51-2.18,2.59-3.7,5.72-5.81,8.38-1.15,1.45-2.9,2.42-4.38,3.6-.45-1.97-1.03-3.93-1.31-5.92-.13-.95,.29-1.99,.6-3.8-1.64,1.19-2.66,2.18-3.87,2.77-5.54,2.73-10.91,6.09-16.76,7.82-7.3,2.15-12.86-3.01-11.87-10.49,1.33-10.09,6.32-18.4,14.21-24.81,1.28-1.04,4.3-1.55,5.49-.77,3.08,2.03,7.31,3.54,6.15,8.94-1.57,7.36-10.28,14.49-19.78,11.78Zm2.63-4.9c6.25,.28,10.28-2.15,10.86-5.98,.19-1.23-.39-2.89-1.23-3.81-.36-.4-2.71,.2-3.37,1-2.12,2.54-3.88,5.38-6.27,8.79Z"/><path d="M168.01,90.01c-.73,.93-1.27,2.17-2.21,2.74-4.42,2.65-8.78,5.58-13.54,7.43-2.12,.82-5.78,.1-7.57-1.34-1.37-1.11-1.64-4.65-1.1-6.78,1.43-5.68,3.57-11.18,5.65-17.44-1.96,0-3.41,.22-4.75-.07-.99-.22-1.84-1.1-2.76-1.68,.63-.92,1.18-1.9,1.92-2.71,.35-.38,1.09-.62,1.64-.59,6.2,.31,7.78-4.02,9.19-8.74,.71-2.39,1.54-4.86,2.93-6.88,.82-1.19,2.83-1.57,4.3-2.31,.39,1.69,1.46,3.58,1.02,5.02-1.1,3.59-2.88,6.97-4.68,11.11h18.88c.11,.4,.21,.8,.32,1.2-1.61,.65-3.17,1.57-4.84,1.89-4.36,.83-8.82,1.24-13.16,2.16-1.52,.32-3.6,1.35-4.08,2.58-1.83,4.65-3.42,9.44-4.51,14.31-.96,4.33,.93,5.87,5.23,4.52,2.66-.83,5.12-2.29,7.66-3.5,1.23-.59,2.43-1.26,3.64-1.89,.28,.33,.55,.66,.83,.98Z"/><path d="M301.79,90.58c.98-2.36,2.7-7.02,4.83-11.5,1.82-3.83,3.54-7.95,6.34-11.01,2.27-2.48,6.07-3.6,9.25-5.21,.34-.17,1.16,.25,1.58,.6,5.79,4.74,8,13.34,5.06,20.45-3.39,8.19-9.09,14.13-17.8,16.73-5.73,1.71-9.65-1.53-9.26-10.06Zm22.94-14.48c-.63-1.18-1.39-3.17-2.69-4.72-.36-.43-2.72,.05-3.45,.8-5.11,5.27-9,11.3-10.07,18.7-.2,1.38,.32,3.64,1.27,4.19,1.02,.6,3.29,.15,4.43-.66,5.95-4.22,9.17-10.16,10.51-18.32Z"/><path d="M120.38,101.19c-1.2-.23-3.31-.2-4.9-1.1-1.22-.7-1.78-2.56-2.63-3.9,1.57-.71,3.1-1.84,4.73-1.99,1.32-.12,2.7,1.13,4.13,1.44,5.67,1.22,9.58-1.95,8.89-7.62-.42-3.46-1.67-6.85-2.82-10.18-3.14-9.09-1.57-14.92,6.46-20.25,3.64-2.41,7.87-4.1,12.04-5.5,1.37-.46,4.51,.61,4.89,1.66,.96,2.68-1.07,4.37-3.73,4.84-1.44,.25-2.96,.03-4.44,.11-7.14,.37-11.47,5.75-9.95,12.64,.76,3.44,2.01,6.78,3.06,10.16,4.7,15.15-4.93,18.82-15.72,19.69Z"/><path d="M286.81,80.73c2.34-2.97,4.5-6.1,7.08-8.85,2.61-2.78,5.47-5.42,8.59-7.59,1.07-.74,3.82-.49,4.76,.4,.85,.8,.85,3.4,.17,4.63-.63,1.14-2.62,1.61-4.08,2.23-1.87,.8-4.58,.92-5.58,2.29-4.74,6.57-9.05,13.45-13.45,20.26-.88,1.36-1.21,3.14-2.27,4.28-.93,.99-2.54,1.33-3.86,1.96-.58-1.37-1.87-2.87-1.63-4.07,1.79-8.96,3.88-17.86,5.89-26.78,.1-.43,.13-1,.42-1.24,1.79-1.47,3.64-2.86,5.48-4.28,.22,2.12,.94,4.33,.56,6.34-.65,3.39-2,6.65-3.06,9.97,.32,.15,.64,.3,.97,.45Z"/><path d="M97.57,100.04c-9.62-8.78-11.75-21.91-5.64-33.02,.51-.92,1.92-1.35,2.91-2.01,.18,1.04,.82,2.27,.47,3.08-4.76,11.01-3.54,21.56,2.26,31.95Z"/><path d="M437.49,63c2.95-3.66,5.9-7.31,9.58-11.88,.55,4.97,.96,8.61,1.37,12.26-.42,.16-.85,.32-1.27,.48-.73-1.33-1.45-2.66-2.66-4.88-2.14,1.74-4.13,3.36-6.12,4.98-.3-.32-.6-.64-.9-.96Z"/></svg>