<?xml version="1.0" encoding="UTF-8"?><svg id="Layer_1" xmlns="http://www.w3.org/2000/svg" viewBox="0 0 465.65 221.39"><path d="M0,0H465.65V221.39c-1.52-.01-3.04-.03-4.56-.03-152.13,0-304.26,0-456.39,0H.03c0-1.8,0-3.2,0-4.59C.02,144.51,.01,72.26,0,0ZM451.81,207.67V13.77H13.89V207.67H451.81Z"/><path d="M269.46,151.57c-3.5,3.89-6.97,7.73-10.58,11.73-2-1.71-3.78-3.23-5.78-4.95,3.7-4.27,7.31-8.42,10.81-12.44-12.25-18.1-14.45-37.29-7.06-57.25,13.01-35.18,53.36-36.4,72.65-20.61,.66,.54,1.37,1,2.17,1.57,3.48-3.87,6.87-7.65,10.35-11.53,2,1.67,3.82,3.19,5.94,4.95-3.68,4.18-7.23,8.21-10.92,12.41,5.32,7.22,8.85,15.19,10.24,23.98,2.68,16.85,.25,32.71-10.43,46.51-14.88,19.24-45.49,22.8-64.64,7.77-.84-.66-1.7-1.32-2.75-2.13Zm10.37-11.69c1.4,1.26,2.58,2.5,3.92,3.5,14.06,10.5,34.56,5.4,42.34-10.6,5.23-10.76,5.85-22.11,3.49-33.65-.74-3.62-2.21-7.09-3.57-11.33-15.65,17.65-30.68,34.6-46.17,52.08Zm-4.85-6.37c15.79-17.77,30.99-34.88,46.15-51.94-13.05-14.78-37.78-10.72-46.3,7.28-5.25,11.09-5.81,22.75-3.15,34.58,.72,3.2,2.03,6.27,3.3,10.08Z"/><path d="M173.63,86.46c25.34-.03,37.93,19.03,36.09,42.13-.86,10.79-4.68,20.24-13.63,27.01-22.41,16.97-54.89,3.55-58.56-24.12-.97-7.34-.58-14.52,1.67-21.53,4.81-15.03,17.67-23.74,34.43-23.49Zm20.77,38.23c-.68-3.71-1.04-7.51-2.12-11.11-2.7-9.02-9.67-14.47-18.16-14.63-9.09-.18-15.92,4.53-19.15,13.71-3.22,9.18-2.98,18.35,1.6,27.09,3.38,6.45,8.81,9.95,16.23,10.16,7.65,.21,13.38-3.01,17.24-9.58,2.82-4.8,3.88-10.06,4.36-15.64Z"/><path d="M118.74,160.36h-17.61V75.96h-31.23v-14.96c1.03-.06,2.06-.18,3.09-.18,24.65-.01,49.31,.03,73.96-.06,2.64,0,3.73,.62,3.51,3.41-.23,2.91-.21,5.86,0,8.78,.18,2.54-.85,3.09-3.2,3.06-8.25-.12-16.51-.05-24.76-.05-1.17,0-2.33,0-3.76,0v84.42Z"/><path d="M364.82,160.59V60.83c4.87,0,9.63-.1,14.36,.13,.54,.03,1.42,1.87,1.42,2.87,.09,13.88,.06,27.77,.06,41.65,0,17.14-.07,34.27,.08,51.41,.03,3.08-.93,3.93-3.87,3.76-3.88-.23-7.79-.06-12.06-.06Z"/></svg>